<svg width="100" height="100" viewBox="0 0 100 100" fill="none" xmlns="http://www.w3.org/2000/svg">
<g clip-path="url(#clip0_18_2168)">
<path d="M73.921 32.9509C74.0024 32.9888 75.8498 34.8527 75.9807 35.0508C76.0492 35.1543 76.0027 35.2148 75.9699 35.3242C75.564 35.0963 73.9437 33.5429 73.8379 33.1308C73.818 33.0536 73.8788 33.011 73.921 32.9509Z" fill="#080717"/>
<path d="M70.3456 11.6305L70.5026 11.6848C70.6259 11.9784 70.1299 13.3709 70.0303 13.7642C69.6789 15.1517 69.4368 16.6232 69.373 18.0539C69.3415 18.7619 69.4622 19.6243 69.309 20.3053C69.2096 20.2813 69.1942 20.2793 69.1175 20.2047C68.985 19.6994 69.0401 19.1355 69.0574 18.6185C69.1381 16.2061 69.5982 13.9236 70.3456 11.6305Z" fill="#080717"/>
<path d="M69.218 21.4944L69.4092 21.5742C69.5047 21.7414 69.6847 23.5501 69.7679 23.9744C70.0508 25.4178 70.5418 26.8264 71.1017 28.1844C71.2282 28.4911 72.0095 30.0626 72.0059 30.2029C72.0045 30.2604 71.9819 30.3154 71.9699 30.3716C71.7153 30.2964 71.5673 29.9607 71.4473 29.738C70.3945 27.7834 69.4886 24.8697 69.2285 22.6608C69.1855 22.2955 69.109 21.8515 69.218 21.4944Z" fill="#080717"/>
<path d="M78.292 36.8459C78.5263 36.8594 80.1417 37.8423 80.5407 38.0323C80.7863 38.1508 81.034 38.2648 81.2837 38.3743C81.5334 38.4838 81.7851 38.5887 82.0386 38.6891C82.2921 38.7895 82.5473 38.8853 82.8043 38.9764C83.0613 39.0676 83.3198 39.1541 83.5799 39.2359C83.84 39.3177 84.1016 39.3948 84.3645 39.4671C84.6273 39.5395 84.8915 39.607 85.1568 39.6698C85.4222 39.7326 85.6886 39.7906 85.9561 39.8437C86.2235 39.8968 86.4918 39.9451 86.7609 39.9886C87.0301 40.032 87.3 40.0706 87.5706 40.1042C87.8412 40.1379 88.1124 40.1666 88.384 40.1905C88.6556 40.2144 88.9276 40.2333 89.1999 40.2473C89.4722 40.2613 89.7447 40.2704 90.0173 40.2746C90.2899 40.2787 90.5626 40.2779 90.8353 40.2722C91.1078 40.2665 91.3802 40.2558 91.6524 40.2403C91.9247 40.2247 92.1966 40.2042 92.4681 40.1788C92.7396 40.1534 93.0105 40.1231 93.2809 40.0878C93.5525 40.0511 94.2966 39.8689 94.5021 40.0041L94.5387 40.209C93.9879 40.3333 93.3972 40.378 92.8364 40.4373C92.218 40.5028 91.5926 40.5794 90.9706 40.5964C87.5525 40.6898 84.0492 39.9025 80.9268 38.5442C80.1512 38.2068 79.0503 37.722 78.4288 37.1734C78.3046 37.0637 78.3033 37.0075 78.292 36.8459Z" fill="#080717"/>
<path d="M54.2335 12.5975C55.51 9.78619 57.5712 7.10321 59.8396 5.01548C60.2341 4.65241 60.6713 4.16856 61.1841 3.98796C61.4265 3.90261 61.6872 3.88759 61.9225 4.00376C62.1777 4.12986 62.3705 4.42322 62.4433 4.6924C62.5143 4.95516 62.4637 5.22964 62.3258 5.46164C61.9767 6.04937 61.1145 6.61509 60.6263 7.13052C58.8709 8.98348 57.2059 11.1023 56.1404 13.4372C56.9221 13.8315 57.602 14.3624 58.267 14.9262C61.1758 17.393 63.333 20.8717 64.5228 24.4784C65.9426 28.7824 66.324 32.8527 66.0733 37.3598C65.9599 39.3997 65.7061 41.5481 65.1808 43.5237C67.0888 43.4579 68.9196 43.5605 70.7732 44.0533C71.3656 44.2107 71.9362 44.4473 72.5292 44.5992C73.0408 44.73 73.5838 44.7127 74.0916 44.8535C76.6794 45.5714 79.2445 46.9688 81.2067 48.8059C85.2268 52.5696 87.4391 57.6829 87.601 63.1687C87.8019 69.9763 85.3012 76.9518 80.5947 81.9214C77.0023 85.7147 72.0168 88.192 66.7625 88.3298C64.9052 88.3786 63.0831 88.2233 61.302 87.6658C60.6743 87.4693 60.076 87.1933 59.4509 86.9965C58.7456 86.7746 58.0207 86.6312 57.319 86.3915C55.1959 85.6659 53.0994 84.3989 51.4809 82.8547C48.9138 80.4055 47.2246 77.3777 46.16 74.0156C45.554 74.5045 45.0019 75.0618 44.4232 75.5827C43.302 76.5921 42.1477 77.6007 40.9593 78.5299C36.2552 82.2082 30.9552 85.1106 25.5118 87.5321C24.4672 87.9967 23.413 88.5283 22.3432 88.9241C20.0607 87.2805 17.8993 85.5476 15.9896 83.4686C16.6438 82.772 17.2153 81.984 17.8112 81.2375C18.8535 79.9317 19.8935 78.6311 20.9145 77.3084C22.9657 74.6347 24.9406 71.9057 26.8392 69.1215C28.7377 66.3374 30.5569 63.5023 32.2969 60.6164C35.5734 55.0179 38.6915 49.3324 41.6511 43.56C45.3693 36.4628 49.0972 29.305 51.9847 21.8202L53.3219 18.3441C53.6399 17.5129 54.1576 16.4109 54.259 15.5354L54.2358 15.4695C54.0268 15.63 53.9666 15.9071 53.8893 16.1463C53.3264 17.8887 52.594 19.6193 51.9248 21.3248C48.9384 28.9362 45.2524 36.2234 41.4469 43.4519C38.604 48.9695 35.6262 54.4133 32.5135 59.7834C30.6441 62.9367 28.6726 66.0249 26.5989 69.0479C24.3309 72.3661 21.9618 75.6106 19.4918 78.7814C18.6743 79.813 17.8499 80.8389 17.0184 81.8591C16.6342 82.3321 16.1795 82.8014 15.8498 83.3092C14.331 81.6353 12.9096 79.9438 11.5935 78.1044C11.0741 77.3783 10.5368 76.6298 10.1159 75.8415C9.98339 75.662 9.862 75.4792 9.74379 75.29C9.34048 74.6298 8.95275 73.9605 8.5806 73.2823C8.20844 72.6041 7.85227 71.9176 7.51208 71.2227C7.17189 70.5279 6.84805 69.8255 6.54056 69.1156C6.23307 68.4057 5.94226 67.689 5.66813 66.9656C5.46956 66.4412 5.1581 65.794 5.14348 65.227C5.12642 64.5654 5.3558 63.7807 5.47724 63.1233C5.84199 61.1487 6.21499 59.1526 6.68622 57.2011C10.4689 41.5362 19.9456 25.4159 33.9659 16.9027C39.3727 13.6197 46.6656 10.6842 53.0689 12.2673C53.46 12.3672 53.8482 12.4773 54.2335 12.5975Z" fill="#080717"/>
<path d="M22.0497 78.5051C22.0618 78.6124 22.069 78.5759 22.0406 78.6707C21.5326 80.3711 21.9066 81.2237 22.5251 82.8165C22.7062 83.2828 22.8671 83.7683 22.9155 84.2687C23.0536 85.701 22.3367 86.9404 21.4582 88.0098L21.3954 88.0144C21.351 87.9049 21.5013 86.4514 21.4454 86.0401C21.3082 85.0299 20.6858 84.1274 20.5215 83.1033C20.2506 81.4145 21.0842 79.8304 22.0497 78.5051Z" fill="#6556FE"/>
<path d="M21.1813 81.7574L21.2968 81.8265C21.8037 83 22.666 84.7184 22.1811 85.9973L22.1139 86.0093C22.0671 85.9174 22.0705 85.952 22.0706 85.8589C22.071 85.4167 22.0966 84.9023 22.0117 84.4688C21.8778 83.7845 21.0198 82.3435 21.1813 81.7574Z" fill="#080717"/>
<path d="M23.0318 71.153C21.0813 73.3495 18.1424 74.9156 15.2475 75.3193C14.1897 75.4667 13.1086 75.4756 12.0441 75.5645C11.3966 75.6186 10.7554 75.7335 10.1153 75.8414C9.98276 75.6619 9.86138 75.4791 9.74316 75.29C11.1574 73.6062 12.8708 72.5215 15.0861 72.3343C17.2934 72.1479 19.7319 72.7612 21.8337 71.8532C22.2625 71.6681 22.6446 71.4114 23.0318 71.153Z" fill="#6556FE"/>
<path d="M14.6845 73.6792C15.4088 73.6226 16.156 73.7239 16.8725 73.6422C17.4207 73.5797 17.9491 73.3327 18.5024 73.3136L18.5322 73.3613L18.5552 73.3322C18.5348 73.3471 18.5146 73.3623 18.4938 73.3767C18.1097 73.6415 17.2616 73.8471 16.801 73.8312C15.9381 73.9741 14.9907 73.8751 14.1109 73.9567C13.3563 74.0719 12.6443 74.2391 11.9582 74.586C11.7013 74.7157 11.4933 74.902 11.2255 75.0158L11.135 74.9167L11.0625 75.0326C11.0793 74.9909 11.0812 74.9803 11.1118 74.9391C11.6396 74.229 12.8211 73.9045 13.649 73.7622C13.9968 73.7157 14.3333 73.6771 14.6845 73.6792Z" fill="#080717"/>
<path d="M30.1115 67.9583C30.1356 68.1602 30.0463 68.4209 30.006 68.6206C29.8518 69.3862 29.7577 70.0583 29.9323 70.8318C30.4957 73.3273 32.6347 74.7356 32.9634 77.407C33.2785 79.9667 31.9783 82.2111 30.4605 84.1542L30.3371 84.2577C30.2374 84.1187 30.3675 83.8107 30.4128 83.6465C30.6253 82.8745 30.7186 82.1935 30.5987 81.3915C30.2397 78.9902 28.2675 77.2452 27.8659 74.7694C27.4799 72.3905 28.7545 69.8449 30.1115 67.9583Z" fill="#6556FE"/>
<path d="M29.1454 73.7712C29.6366 74.0292 30.5996 75.4153 30.8935 75.9133C31.833 77.5064 32.1585 79.2431 31.686 81.0472L31.5089 80.9887C31.412 80.7805 31.5347 80.2206 31.5607 79.9683C31.785 77.7858 30.8413 76.2387 29.5648 74.5655C29.3806 74.3241 29.1189 74.0863 29.1454 73.7712Z" fill="#080717"/>
<path d="M46.7657 38.6106C46.8131 39.0478 46.6986 39.5974 46.6766 40.0486C46.6399 40.7996 46.7008 41.5316 46.799 42.275C47.222 45.4775 49.0417 48.5349 51.6003 50.5021C51.1906 51.0931 50.6759 51.6141 50.2462 52.1938C48.8433 51.1485 47.6663 50.0416 46.6823 48.5784C46.4474 48.2291 46.3053 47.8306 46.0645 47.49C46.0239 47.4326 46.0001 47.4466 45.9338 47.4359L45.8714 47.4981C45.8788 48.0374 46.8753 49.3319 47.2239 49.7833C47.4271 50.0403 47.6405 50.2885 47.8642 50.5279C48.0879 50.7672 48.3211 50.997 48.5638 51.2171C48.8065 51.4373 49.0578 51.647 49.3178 51.8464C49.5777 52.0458 49.8455 52.2342 50.121 52.4115C49.4547 53.4508 48.8126 54.4705 48.2209 55.555C46.9987 54.7376 46.044 53.3517 45.5003 52.0048C45.0809 50.9662 44.7904 49.8654 44.7199 48.7451C44.5461 45.9822 45.6797 41.1643 46.7657 38.6106Z" fill="#6556FE"/>
<path d="M39.0492 52.491C39.0986 52.5849 38.726 53.6577 38.6856 53.8554C38.651 54.0207 38.6215 54.1869 38.5968 54.354C38.5722 54.521 38.5526 54.6887 38.538 54.8569C38.5233 55.0252 38.5137 55.1937 38.5092 55.3626C38.5045 55.5313 38.505 55.7001 38.5104 55.8689C38.516 56.0377 38.5265 56.2062 38.542 56.3743C38.5575 56.5424 38.5781 56.71 38.6036 56.8769C38.6291 57.0438 38.6596 57.2099 38.695 57.375C38.7304 57.5402 38.7707 57.7041 38.8159 57.8668C39.1344 59.0437 39.7543 60.0404 40.371 61.0764C41.3321 62.6912 42.4373 64.4645 42.8752 66.3133C43.73 69.9217 42.3354 73.0389 40.4878 76.0429C40.4551 76.0546 40.4778 76.0501 40.4194 76.029C40.5499 75.3704 40.7163 74.7041 40.7371 74.0309C40.8293 71.043 39.4644 69.7851 38.1053 67.4098C37.3006 66.0034 36.6888 64.5066 36.3772 62.9119C35.703 59.4612 37.1219 55.3689 39.0492 52.491Z" fill="#6556FE"/>
<path d="M37.8682 61.8474C37.9107 61.8489 37.947 61.8479 37.9891 61.8603C38.5442 62.0247 40.4451 64.7343 40.8009 65.3561C41.8085 67.1167 42.4201 69.2612 41.8733 71.2715C41.8278 71.2803 41.7565 71.2748 41.7095 71.275C41.604 71.1256 41.7673 69.9145 41.7688 69.6454C41.7682 69.4666 41.7606 69.2881 41.7462 69.1099C41.7317 68.9317 41.7105 68.7543 41.6824 68.5778C41.6543 68.4012 41.6194 68.226 41.5778 68.0521C41.5362 67.8782 41.488 67.7062 41.4331 67.5361C41.2841 67.0768 41.1071 66.6287 40.9019 66.1917C40.6966 65.7547 40.465 65.3322 40.2068 64.9243C39.8409 64.3648 39.441 63.8307 39.0073 63.322C38.6794 62.9432 38.3105 62.5768 38.0142 62.1737C37.9334 62.0638 37.8942 61.9805 37.8682 61.8474Z" fill="#080717"/>
<path d="M42.6087 36.5736C42.608 36.587 42.6091 36.6006 42.6066 36.6137C42.5709 36.8084 42.2854 37.1338 42.1603 37.3086C41.8529 37.7402 41.5305 38.1604 41.1932 38.569C40.8557 38.9776 40.5042 39.3736 40.1385 39.7571C39.7728 40.1406 39.3939 40.5106 39.0018 40.867C38.6096 41.2234 38.2053 41.5654 37.7887 41.8928C34.9771 44.1083 31.9086 45.2423 28.2906 44.8277C27.1207 44.6936 25.9722 44.3979 24.8006 44.2615C23.0994 44.0636 21.1536 44.1719 19.6361 45.0447C19.1603 45.3182 18.7365 45.6777 18.3076 46.0179C18.5636 45.209 19.809 43.5183 20.3877 42.8784C22.9411 40.0549 26.172 39.0597 29.8913 39.6182C31.654 39.8829 33.4291 40.3256 35.223 40.2329C38.2149 40.0784 40.6153 38.7725 42.6087 36.5736Z" fill="#6556FE"/>
<path d="M26.3781 41.672C28.1343 41.6877 29.4887 42.2345 31.117 42.3592C31.53 42.3908 33.2248 42.2944 33.4339 42.3831L33.3905 42.4419C32.3019 42.9821 30.1699 42.5472 29.015 42.2823C27.3837 41.9861 25.7574 41.7132 24.1354 42.2648C23.6161 42.4413 23.0819 42.8002 22.5498 42.8948L22.5244 42.8346C22.5364 42.7884 22.5396 42.762 22.5702 42.7198C22.6936 42.5491 22.9993 42.4405 23.1902 42.3609C24.2601 41.9148 25.2245 41.7258 26.3781 41.672Z" fill="#080717"/>
<path d="M34.1221 52.3915L34.1492 52.4275C34.0884 52.7464 33.7258 53.1753 33.5335 53.4405C30.696 57.3563 27.9196 60.4035 22.9174 61.2564C21.3667 61.521 19.7937 61.5289 18.2446 61.785C15.0951 62.3057 12.931 63.7592 11.0831 66.3464C11.0792 66.3261 11.073 66.3061 11.0712 66.2856C11.0485 66.0091 11.2352 65.5792 11.3202 65.3137C11.8908 63.5318 12.6191 61.8886 13.7291 60.3728C15.9251 57.3739 18.8607 56.187 22.5126 56.1445C24.2421 56.1245 25.9192 56.2513 27.6428 55.9791C29.4271 55.6972 31.5653 55.0494 32.9316 53.8102C33.3941 53.3908 33.7579 52.8944 34.1221 52.3915Z" fill="#6556FE"/>
<path d="M20.0499 58.3661C20.4496 58.3231 20.862 58.3165 21.2635 58.33C22.3334 58.3658 23.3941 58.5526 24.4647 58.5869C25.0346 58.6052 25.7749 58.4499 26.3142 58.6178L26.287 58.6737C25.1617 59.116 22.6109 58.66 21.3336 58.6386C20.5574 58.6255 19.842 58.7237 19.0841 58.8706C18.1212 59.1453 17.2644 59.5452 16.4751 60.1693C16.2986 60.3088 15.141 61.4537 15.139 61.4546C15.1133 61.466 15.083 61.459 15.055 61.4613C15.0291 61.2709 15.1645 61.1024 15.2755 60.9566C16.4303 59.4403 18.196 58.6213 20.0499 58.3661Z" fill="#080717"/>
<path d="M54.8656 19.917C54.93 20.0454 54.8357 20.3081 54.807 20.4551C54.0221 24.4699 54.9883 27.5988 57.6497 30.6684C58.6772 31.8535 59.7986 32.9474 60.6741 34.2562C60.7189 34.3229 60.7629 34.3903 60.8061 34.4583C60.8493 34.5262 60.8916 34.5946 60.9331 34.6636C60.9745 34.7326 61.0152 34.8021 61.0549 34.8721C61.0946 34.9421 61.1335 35.0125 61.1714 35.0835C61.2094 35.1545 61.2465 35.2259 61.2827 35.2978C61.3189 35.3697 61.3541 35.442 61.3885 35.5147C61.4229 35.5875 61.4564 35.6607 61.4889 35.7344C61.5215 35.808 61.5531 35.882 61.5837 35.9563C61.6144 36.0308 61.6442 36.1055 61.673 36.1807C61.7018 36.2559 61.7297 36.3314 61.7567 36.4072C61.7836 36.4831 61.8096 36.5592 61.8346 36.6356C61.8596 36.7121 61.8837 36.789 61.9068 36.8661C61.9299 36.9432 61.9521 37.0205 61.9733 37.0981C61.9944 37.1758 62.0146 37.2537 62.0338 37.3318C62.0531 37.41 62.0714 37.4884 62.0886 37.567C62.1059 37.6456 62.1221 37.7244 62.1374 37.8034C62.1527 37.8825 62.1671 37.9617 62.1804 38.041C62.1937 38.1204 62.206 38.1999 62.2173 38.2796C62.2287 38.3593 62.239 38.4391 62.2484 38.519C62.2577 38.599 62.266 38.679 62.2734 38.7592C62.2807 38.8393 62.287 38.9196 62.2923 38.9999C62.2977 39.0802 62.302 39.1605 62.3053 39.2409C62.3086 39.3214 62.311 39.4019 62.3123 39.4823C62.3136 39.5628 62.3138 39.6433 62.3131 39.7237C62.3124 39.8042 62.3107 39.8847 62.3081 39.9651C62.3053 40.0455 62.3016 40.1259 62.2968 40.2063C62.2921 40.2866 62.2864 40.3669 62.2796 40.4471C62.2729 40.5273 62.2652 40.6074 62.2565 40.6874C62.2478 40.7674 62.238 40.8473 62.2273 40.927C62.2165 41.0068 62.2048 41.0864 62.192 41.1659C62.1793 41.2454 62.1656 41.3247 62.1509 41.4038C62.1362 41.483 62.1205 41.5619 62.1039 41.6406C61.9836 42.2292 61.6662 43.8834 61.1798 44.2079C61.0518 44.1869 61.0626 44.1839 60.9852 44.0778C59.9116 41.3368 57.4752 39.7891 55.6509 37.6223C55.4838 37.4202 55.3236 37.2128 55.1703 37C55.017 36.7872 54.871 36.5696 54.7324 36.3471C54.5936 36.1245 54.4625 35.8976 54.3389 35.6663C54.2153 35.4351 54.0997 35.1999 53.9918 34.9608C51.8659 30.3201 53.1771 24.489 54.8656 19.917Z" fill="#6556FE"/>
<path d="M60.9702 41.1233C60.6192 38.4601 59.9721 36.6348 58.1131 34.6408C57.381 33.8557 56.6003 33.0992 55.9326 32.2576C55.5401 31.7628 54.2585 29.882 54.3247 29.3111L54.3743 29.2729C54.4295 29.3037 54.4282 29.2996 54.4835 29.3502C54.6807 29.5309 55.475 31.1966 55.8123 31.6516C57.6911 34.1859 59.7491 35.2993 60.7742 38.5877C60.9602 39.1848 61.1603 39.8237 61.1843 40.4525C61.2919 41.0337 61.4549 42.013 61.248 42.5646C61.2395 42.5874 61.2316 42.6103 61.223 42.6329C61.1879 42.7247 61.1729 42.7734 61.0961 42.8368C60.9675 42.5578 60.9943 41.5023 60.9702 41.1233Z" fill="#080717"/>
<path d="M49.5023 20.8459C49.4594 21.3964 47.0168 25.1771 46.5328 25.8108C43.7944 29.3966 40.2687 31.5343 35.8184 29.4816C34.929 29.0714 34.1258 28.5152 33.2814 28.0247C31.4574 26.965 29.3702 26.2913 27.2455 26.5781C26.6511 26.6666 26.1006 26.8391 25.5449 27.0644C26.1149 26.5383 26.6797 25.9695 27.2967 25.5002C30.4012 23.1389 33.7053 22.558 37.3957 23.8571C39.1351 24.4694 40.7202 25.1073 42.612 24.9558C44.6463 24.7929 46.6344 23.7653 48.1163 22.3821C48.6208 21.9112 49.057 21.3718 49.5023 20.8459Z" fill="#6556FE"/>
<path d="M30.6465 24.6279C30.9646 24.5713 31.3405 24.5855 31.6632 24.5952C34.4166 24.6784 36.4547 26.6551 39.0914 27.1127C39.9207 27.2567 40.7701 27.2711 41.5917 27.0798C41.9192 27.0036 42.293 26.8664 42.6282 26.8627L42.6763 26.9461C42.6476 27.0295 42.6537 27.0544 42.5788 27.1097C41.9765 27.5542 40.0044 27.5247 39.2523 27.427C36.8347 27.152 34.9422 25.3489 32.3502 24.9743C31.6089 24.8671 30.883 24.8708 30.1445 24.9994C29.5571 25.1019 29.0114 25.2868 28.4488 25.4789C28.2298 25.5537 27.9071 25.7127 27.6815 25.7337C27.6411 25.7375 27.6021 25.716 27.5625 25.707C27.5713 25.6922 27.5788 25.6766 27.5891 25.6628C28.0131 25.0956 29.9541 24.7092 30.6465 24.6279Z" fill="#080717"/>
<path d="M65.9442 43.7713C70.0157 43.5533 74.6512 45.2911 77.6603 47.9811C81.529 51.4394 83.5673 56.5226 83.8392 61.6499C83.849 61.8612 83.8562 62.0726 83.8609 62.284C83.8655 62.4955 83.8676 62.707 83.8671 62.9186C83.8666 63.1301 83.8636 63.3416 83.8579 63.5531C83.8523 63.7645 83.8441 63.9759 83.8333 64.1872C83.8225 64.3984 83.8092 64.6095 83.7933 64.8205C83.7775 65.0314 83.759 65.2421 83.738 65.4526C83.7169 65.6631 83.6934 65.8733 83.6673 66.0832C83.6411 66.2931 83.6124 66.5027 83.5812 66.7119C83.55 66.9211 83.5162 67.1299 83.48 67.3383C83.4436 67.5467 83.4048 67.7546 83.3635 67.9621C83.3221 68.1696 83.2783 68.3765 83.2319 68.5829C83.1856 68.7893 83.1367 68.995 83.0853 69.2002C83.034 69.4055 82.9801 69.61 82.9237 69.8139C82.8674 70.0178 82.8086 70.221 82.7472 70.4234C82.686 70.6259 82.6223 70.8276 82.556 71.0285C82.4899 71.2294 82.4213 71.4295 82.3503 71.6288C82.2792 71.828 82.2057 72.0263 82.1299 72.2238C82.054 72.4212 81.9758 72.6178 81.8951 72.8133C81.8144 73.0089 81.7314 73.2035 81.6461 73.397C81.5607 73.5906 81.473 73.7831 81.383 73.9745C81.293 74.1659 81.2006 74.3561 81.1059 74.5453C81.0112 74.7345 80.9142 74.9225 80.815 75.1093C80.7158 75.2961 80.6143 75.4817 80.5105 75.6661C80.4068 75.8504 80.3009 76.0334 80.1927 76.2152C80.0845 76.397 79.9741 76.5774 79.8615 76.7565C79.7489 76.9356 79.6341 77.1133 79.5173 77.2896C79.4003 77.4659 79.2813 77.6407 79.1602 77.8141C79.0391 77.9876 78.9158 78.1595 78.7905 78.3298C78.6652 78.5003 78.5378 78.6692 78.4084 78.8365C78.279 79.0038 78.1475 79.1695 78.014 79.3336C77.8806 79.4978 77.7451 79.6602 77.6077 79.8211C77.4703 79.9819 77.331 80.1411 77.1897 80.2985C73.689 84.1928 68.9172 86.781 63.6352 87.0619C59.4717 87.2715 55.0653 85.7278 51.9614 82.9218C48.0138 79.3532 45.8281 74.0558 45.5867 68.7929C45.2892 62.3103 47.6381 55.3169 52.0368 50.51C55.6811 46.5277 60.5217 44.0089 65.9442 43.7713Z" fill="#FEFEFF"/>
<path d="M65.434 48.8969C65.4518 48.8951 65.4695 48.8926 65.4873 48.8913C68.7769 48.6462 72.0366 49.9015 74.5121 52.0297C75.0198 52.4661 75.4502 52.9699 75.8738 53.4857C77.8519 55.8945 78.9105 58.7752 79.149 61.8668C79.1606 62.0314 79.1702 62.196 79.1779 62.3608C79.1855 62.5256 79.1911 62.6904 79.1948 62.8553C79.1983 63.0202 79.1999 63.1851 79.1995 63.35C79.1991 63.515 79.1968 63.68 79.1924 63.8449C79.188 64.0097 79.1816 64.1745 79.1732 64.3392C79.1648 64.504 79.1544 64.6686 79.142 64.833C79.1296 64.9976 79.1152 65.1619 79.0988 65.326C79.0823 65.4901 79.064 65.654 79.0436 65.8177C79.0232 65.9814 79.0008 66.1448 78.9765 66.3079C78.9521 66.471 78.9258 66.6338 78.8975 66.7963C78.8692 66.9588 78.8389 67.121 78.8067 67.2828C78.7744 67.4445 78.7402 67.6059 78.704 67.7667C78.6678 67.9277 78.6297 68.0882 78.5896 68.2482C78.5495 68.4081 78.5075 68.5676 78.4636 68.7266C78.4197 68.8856 78.3738 69.044 78.3259 69.2019C78.2781 69.3598 78.2284 69.517 78.1768 69.6737C78.1252 69.8304 78.0716 69.9864 78.0162 70.1417C77.9608 70.2971 77.9035 70.4517 77.8444 70.6057C77.7852 70.7597 77.7241 70.9129 77.6612 71.0654C77.5983 71.2178 77.5335 71.3695 77.4669 71.5205C77.4004 71.6714 77.332 71.8214 77.2617 71.9706C77.1915 72.1199 77.1195 72.2683 77.0456 72.4158C76.9717 72.5632 76.8961 72.7098 76.8187 72.8555C76.7413 73.0011 76.6621 73.1458 76.5813 73.2896C76.5003 73.4333 76.4176 73.576 76.3332 73.7177C76.2489 73.8594 76.1628 74.0001 76.0749 74.1398C75.9871 74.2794 75.8976 74.4179 75.8065 74.5553C75.7153 74.6928 75.6224 74.8291 75.528 74.9643C75.4334 75.0995 75.3373 75.2336 75.2396 75.3664C75.1418 75.4993 75.0424 75.6309 74.9415 75.7614C74.8406 75.8918 74.738 76.021 74.6339 76.149C74.5298 76.2769 74.4242 76.4036 74.317 76.5289C71.7145 79.556 68.2936 81.5751 64.2699 81.8798C61.0829 82.0576 57.9976 81.1487 55.5402 79.07C52.4565 76.4616 50.7607 72.4768 50.4338 68.4971C50.4202 68.3407 50.4086 68.1841 50.3989 68.0273C50.3891 67.8706 50.3813 67.7137 50.3755 67.5568C50.3697 67.3998 50.3657 67.2428 50.3638 67.0858C50.3618 66.9287 50.3618 66.7717 50.3637 66.6147C50.3656 66.4577 50.3695 66.3007 50.3753 66.1438C50.3811 65.9868 50.3888 65.83 50.3985 65.6732C50.4082 65.5165 50.4198 65.3599 50.4333 65.2034C50.4469 65.0469 50.4624 64.8907 50.4798 64.7346C50.4972 64.5785 50.5165 64.4226 50.5378 64.267C50.559 64.1114 50.5822 63.9561 50.6073 63.8011C50.6324 63.6461 50.6594 63.4914 50.6884 63.337C50.7173 63.1827 50.7481 63.0287 50.7809 62.8751C50.8136 62.7215 50.8483 62.5683 50.8848 62.4156C50.9213 62.2628 50.9597 62.1105 50.9999 61.9587C51.0402 61.807 51.0824 61.6557 51.1264 61.5049C51.1704 61.3542 51.2163 61.204 51.2641 61.0544C51.3118 60.9048 51.3614 60.7558 51.4128 60.6074C51.4643 60.459 51.5175 60.3113 51.5726 60.1642C51.6276 60.0171 51.6845 59.8707 51.7432 59.725C51.8018 59.5794 51.8623 59.4345 51.9246 59.2904C51.9869 59.1462 52.0509 59.0028 52.1167 58.8602C52.1825 58.7176 52.2501 58.5758 52.3195 58.4349C52.3888 58.294 52.4599 58.154 52.5326 58.0148C52.6054 57.8757 52.6799 57.7374 52.7561 57.6C52.8323 57.4627 52.9102 57.3264 52.9898 57.191C53.0693 57.0556 53.1506 56.9212 53.2335 56.7878C53.3164 56.6544 53.4009 56.5221 53.487 56.3908C53.5732 56.2594 53.661 56.1292 53.7504 56.0001C53.8398 55.871 53.9308 55.743 54.0233 55.6161C54.1158 55.4893 54.21 55.3635 54.3056 55.239C54.4013 55.1145 54.4985 54.9911 54.5972 54.8689C54.6959 54.7467 54.7961 54.6259 54.8978 54.5062C57.5333 51.415 61.3641 49.2296 65.434 48.8969Z" fill="#080717"/>
<path d="M65.318 49.1904C65.3359 49.1876 65.3536 49.1836 65.3716 49.1818C67.5392 48.9691 70.0623 49.5447 71.9752 50.5843C72.7683 51.0153 73.5205 51.5845 74.2232 52.1506C77.0037 54.3911 78.4901 58.1075 78.8556 61.5782C79.3778 66.5371 77.6769 71.9623 74.5511 75.824C71.941 79.0487 68.6483 81.1458 64.4621 81.5835C61.3763 81.7692 58.3375 81.0226 55.9265 79.0196C52.8043 76.426 51.0991 72.5786 50.7431 68.5837C50.7285 68.43 50.7159 68.2761 50.7052 68.1222C50.6945 67.9681 50.6857 67.814 50.6788 67.6598C50.6719 67.5055 50.6669 67.3513 50.6638 67.197C50.6608 67.0426 50.6596 66.8883 50.6604 66.7339C50.6612 66.5795 50.6639 66.4251 50.6685 66.2708C50.6731 66.1165 50.6797 65.9623 50.6881 65.8081C50.6966 65.654 50.707 65.5 50.7193 65.3461C50.7315 65.1922 50.7457 65.0385 50.7619 64.885C50.7779 64.7315 50.7959 64.5781 50.8159 64.425C50.8358 64.2719 50.8576 64.1192 50.8814 63.9666C50.9051 63.814 50.9307 63.6618 50.9582 63.5099C50.9857 63.358 51.0151 63.2065 51.0463 63.0553C51.0776 62.9041 51.1108 62.7533 51.1458 62.6029C51.1809 62.4526 51.2178 62.3027 51.2565 62.1533C51.2952 62.0039 51.3358 61.8549 51.3784 61.7065C51.4208 61.5581 51.4651 61.4102 51.5112 61.2629C51.5573 61.1156 51.6053 60.9688 51.6551 60.8227C51.7049 60.6766 51.7565 60.5311 51.8099 60.3862C51.8633 60.2414 51.9185 60.0972 51.9754 59.9537C52.0324 59.8102 52.0912 59.6675 52.1517 59.5255C52.2122 59.3835 52.2746 59.2423 52.3386 59.1018C52.4027 58.9613 52.4685 58.8217 52.536 58.6828C52.6035 58.544 52.6727 58.4061 52.7437 58.269C52.8147 58.1318 52.8873 57.9956 52.9617 57.8604C53.036 57.725 53.112 57.5906 53.1897 57.4572C53.2674 57.3238 53.3467 57.1914 53.4277 57.06C53.5087 56.9285 53.5913 56.7981 53.6754 56.6688C53.7597 56.5394 53.8455 56.4111 53.9329 56.2838C54.0203 56.1566 54.1093 56.0304 54.1998 55.9054C54.2904 55.7803 54.3825 55.6564 54.4761 55.5337C54.5697 55.411 54.6649 55.2894 54.7615 55.1691C54.8581 55.0487 54.9563 54.9295 55.0559 54.8115C57.5771 51.8131 61.3807 49.5321 65.318 49.1904Z" fill="#FEFEFF"/>
<path d="M64.7576 57.2848C65.5302 57.2404 66.0785 57.3508 66.8162 57.5898C66.1528 59.3237 65.5092 61.0634 64.7888 62.775C64.6206 63.1746 64.4496 63.7426 64.1834 64.0821C63.2273 63.3882 62.4017 62.6127 62.1286 61.4233C62.1157 61.3669 62.1042 61.3102 62.0941 61.2532C62.084 61.1963 62.0753 61.1391 62.068 61.0817C62.0608 61.0243 62.0549 60.9668 62.0504 60.9091C62.046 60.8514 62.043 60.7936 62.0413 60.7358C62.0398 60.678 62.0396 60.6201 62.0409 60.5623C62.0421 60.5044 62.0448 60.4467 62.0489 60.389C62.053 60.3312 62.0585 60.2737 62.0654 60.2162C62.0723 60.1588 62.0806 60.1016 62.0904 60.0446C62.1001 59.9875 62.1112 59.9308 62.1238 59.8743C62.1363 59.8178 62.1502 59.7617 62.1655 59.7059C62.1808 59.6501 62.1974 59.5947 62.2155 59.5398C62.2335 59.4848 62.2529 59.4302 62.2736 59.3762C62.2943 59.3222 62.3163 59.2688 62.3396 59.2158C62.363 59.1629 62.3876 59.1106 62.4135 59.0588C62.4394 59.0071 62.4666 58.9561 62.495 58.9057C62.5234 58.8553 62.5531 58.8056 62.5839 58.7567C63.0914 57.9489 63.8441 57.5002 64.7576 57.2848Z" fill="#FEFEFF"/>
<path d="M64.1605 66.1329C64.2641 66.199 64.3656 66.269 64.4668 66.3385C65.4469 67.0116 66.3884 67.9474 66.6041 69.1625C66.6133 69.2171 66.6211 69.272 66.6276 69.3271C66.6341 69.3821 66.6393 69.4372 66.6432 69.4925C66.647 69.5478 66.6495 69.6031 66.6506 69.6585C66.6517 69.7139 66.6515 69.7693 66.6499 69.8247C66.6483 69.8801 66.6454 69.9354 66.6411 69.9906C66.6368 70.0459 66.6312 70.101 66.6242 70.156C66.6173 70.211 66.609 70.2658 66.5993 70.3203C66.5897 70.3749 66.5787 70.4292 66.5664 70.4832C66.5542 70.5373 66.5406 70.591 66.5257 70.6444C66.5108 70.6977 66.4946 70.7507 66.4771 70.8033C66.4595 70.8559 66.4408 70.908 66.4207 70.9597C66.4007 71.0113 66.3794 71.0625 66.3568 71.1131C66.3343 71.1637 66.3106 71.2137 66.2856 71.2632C66.2606 71.3127 66.2345 71.3615 66.2071 71.4097C66.1798 71.4579 66.1513 71.5054 66.1216 71.5522C66.0919 71.599 66.0611 71.645 66.0292 71.6904C65.5233 72.4089 64.7838 72.8402 63.9273 72.994C63.0659 73.0706 62.3486 72.9415 61.5205 72.7176C61.9279 71.4983 62.4577 70.3077 62.9425 69.1166C63.3465 68.124 63.7132 67.1064 64.1605 66.1329Z" fill="#FEFEFF"/>
<path d="M67.1592 56.7988L61.4957 56.7626L60.727 65.1979L58.9844 65.1867L58.8136 67.0612L60.5562 67.0724L60.3854 68.9469L58.6428 68.9357L58.4719 70.8102L60.2145 70.8214L59.9583 73.6331L61.7009 73.6443L61.9571 70.8325L65.4423 70.8548L65.6131 68.9803L62.1279 68.958L62.2988 67.0835L66.2196 67.1086C68.8683 67.1255 71.2218 64.8336 71.4815 61.9843C71.7412 59.1351 69.8079 56.8157 67.1592 56.7988ZM66.3904 65.2341L62.4696 65.209L63.0675 58.6482L66.9883 58.6733C68.6699 58.6841 69.9038 60.1643 69.7389 61.9732C69.5741 63.7821 68.072 65.2448 66.3904 65.2341Z" fill="black"/>
</g>
<defs>
<clipPath id="clip0_18_2168">
<rect width="100" height="100" fill="white"/>
</clipPath>
</defs>
</svg>
