<svg width="270" height="284" viewBox="0 0 270 284" fill="none" xmlns="http://www.w3.org/2000/svg">
<path d="M269.284 5.73983V11.5407L265.193 11.9682C248.156 13.8 234.173 25.6461 229.166 42.4992C228.189 45.8577 228.067 51.8417 227.762 120.659C227.334 201.627 227.517 197.231 224.037 207.978C222.266 213.168 217.259 223.06 213.901 227.762C204.619 240.768 189.537 251.576 173.783 256.461C170.302 257.499 167.982 258.049 160.105 259.331L158.09 259.636L158.273 265.132L158.456 270.627L173.294 270.566C181.965 270.566 189.109 270.811 190.514 271.177C194.239 272.154 195.399 274.169 195.399 279.481V284L157.968 283.878L120.598 283.695L120.414 280.031C120.292 276.978 120.476 275.94 121.636 274.23C123.712 271.177 125.971 270.627 136.291 270.627L145.328 270.566V265.071C145.328 262.018 145.206 259.575 145.084 259.575C144.961 259.575 142.519 259.148 139.649 258.659C129.207 256.827 117.606 252.248 110.156 247.057C107.958 245.531 106.065 244.31 105.882 244.31C105.698 244.31 103.561 245.958 101.18 248.034C86.4028 260.491 63.993 272.154 43.0487 278.199C33.1566 281.069 12.9451 284 2.86983 284H-9.536e-05L0.122029 224.892L0.305215 165.845H46.8956C72.4807 165.845 93.425 165.723 93.425 165.539C93.425 165.356 92.3869 164.746 91.1046 164.135C81.5179 159.372 67.4125 146.549 60.8178 136.596C53.6125 125.666 48.6054 112.904 46.6514 100.508C45.2469 91.1658 45.7354 77.4268 47.8726 68.3896C51.6585 51.9639 59.6576 37.6143 71.5037 25.7682C83.8382 13.4337 100.325 4.8239 117.85 1.52655C123.162 0.488491 129.513 0.366367 196.437 0.18318L269.284 -6.29202e-06V5.73983ZM139.344 44.3922C123.773 47.5063 110.828 59.963 106.859 75.5339C103.256 89.5171 107.408 104.966 117.483 115.163C124.75 122.491 132.932 126.521 142.763 127.681C155.953 129.146 168.348 124.872 177.691 115.53C182.515 110.645 185.568 105.821 187.827 99.287C189.354 94.9516 189.537 93.5472 189.598 86.464C189.598 82.0675 189.354 77.7321 189.109 76.7551L188.621 74.9843L187.216 77.9763C185.629 81.3958 181.66 85.548 177.996 87.6852C166.272 94.5852 150.762 89.5782 144.778 76.9994C143.374 74.0684 143.191 72.8471 143.191 67.2294C143.191 61.4285 143.374 60.4515 144.9 57.3373C146.976 53.063 150.823 49.0329 155.098 46.5904L158.334 44.6975L155.953 44.3311C154.67 44.0869 153.266 43.8426 152.961 43.7205C151.312 43.1709 143.496 43.5373 139.344 44.3922ZM149.969 180.194C149.358 182.026 147.77 185.873 146.488 188.682C145.145 191.491 144.107 193.994 144.107 194.239C144.107 194.788 148.32 196.62 150.213 196.803L151.739 196.986L151.923 186.301C151.984 180.439 151.861 175.92 151.556 176.225C151.312 176.592 150.579 178.363 149.969 180.194ZM137.268 206.451L135.008 210.115L137.268 211.275C140.87 213.046 145.389 214.389 148.686 214.511L151.739 214.694V210.42V206.146L148.686 205.779C146.976 205.535 144.351 204.863 142.885 204.131C141.359 203.459 140.015 202.848 139.832 202.848C139.649 202.848 138.489 204.436 137.268 206.451ZM127.498 220.862C124.506 224.892 124.383 224.709 131.589 228.189C136.718 230.632 141.42 231.914 147.526 232.464L152.045 232.891V228.556V224.22L148.503 223.854C142.763 223.182 138.061 221.839 134.092 219.641C132.077 218.541 130.307 217.564 130.245 217.503C130.184 217.503 128.963 218.969 127.498 220.862ZM114.186 238.814C116.751 240.829 126.215 245.531 130.856 247.118C136.107 248.95 144.29 250.416 148.747 250.416H152.045V246.203V242.05L147.221 241.623C138.55 240.89 129.818 238.142 122.307 233.685L118.766 231.548L115.713 234.601L112.66 237.654L114.186 238.814Z" fill="#3B82F6"/>
</svg>
